<?xml version="1.0" encoding="windows-1252" standalone="no"?>
<svg xmlns="http://www.w3.org/2000/svg" xmlns:xlink="http://www.w3.org/1999/xlink" contentStyleType="text/css" height="610px" preserveAspectRatio="none" style="width:3511px;height:610px;background:#FFFFFF;" version="1.1" viewBox="0 0 3511 610" width="3511px" zoomAndPan="magnify"><defs/><g><!--class Display--><g id="elem_Display"><rect codeLine="1" fill="#F1F1F1" height="194.6719" id="Display" rx="2.5" ry="2.5" style="stroke:#181818;stroke-width:0.5;" width="260" x="2704.5" y="352.01"/><ellipse cx="2805.75" cy="368.01" fill="#ADD1B2" rx="11" ry="11" style="stroke:#181818;stroke-width:1.0;"/><path d="M2808.7188,373.6506 Q2808.1406,373.9475 2807.5,374.0881 Q2806.8594,374.2444 2806.1563,374.2444 Q2803.6563,374.2444 2802.3281,372.6038 Q2801.0156,370.9475 2801.0156,367.8225 Q2801.0156,364.6975 2802.3281,363.0413 Q2803.6563,361.385 2806.1563,361.385 Q2806.8594,361.385 2807.5,361.5413 Q2808.1563,361.6975 2808.7188,361.9944 L2808.7188,364.7131 Q2808.0938,364.135 2807.5,363.8694 Q2806.9063,363.5881 2806.2813,363.5881 Q2804.9375,363.5881 2804.25,364.6663 Q2803.5625,365.7288 2803.5625,367.8225 Q2803.5625,369.9163 2804.25,370.9944 Q2804.9375,372.0569 2806.2813,372.0569 Q2806.9063,372.0569 2807.5,371.7913 Q2808.0938,371.51 2808.7188,370.9319 L2808.7188,373.6506 Z " fill="#000000"/><text fill="#000000" font-family="sans-serif" font-size="14" lengthAdjust="spacing" textLength="49" x="2826.25" y="372.8567">Display</text><line style="stroke:#181818;stroke-width:0.5;" x1="2705.5" x2="2963.5" y1="384.01" y2="384.01"/><ellipse cx="2715.5" cy="397.6584" fill="none" rx="3" ry="3" style="stroke:#038048;stroke-width:1.0;"/><text fill="#000000" font-family="sans-serif" font-size="14" lengthAdjust="spacing" textLength="175" x="2724.5" y="401.0051">renderer: SDL_Renderer*</text><ellipse cx="2715.5" cy="413.9553" fill="none" rx="3" ry="3" style="stroke:#038048;stroke-width:1.0;"/><text fill="#000000" font-family="sans-serif" font-size="14" lengthAdjust="spacing" textLength="153" x="2724.5" y="417.302">surface: SDL_Surface*</text><ellipse cx="2715.5" cy="430.2522" fill="none" rx="3" ry="3" style="stroke:#038048;stroke-width:1.0;"/><text fill="#000000" font-family="sans-serif" font-size="14" lengthAdjust="spacing" textLength="152" x="2724.5" y="433.5989">texture: SDL_Texture*</text><ellipse cx="2715.5" cy="446.5491" fill="none" rx="3" ry="3" style="stroke:#038048;stroke-width:1.0;"/><text fill="#000000" font-family="sans-serif" font-size="14" lengthAdjust="spacing" textLength="65" x="2724.5" y="449.8957">DIMW: int</text><ellipse cx="2715.5" cy="462.8459" fill="none" rx="3" ry="3" style="stroke:#038048;stroke-width:1.0;"/><text fill="#000000" font-family="sans-serif" font-size="14" lengthAdjust="spacing" textLength="62" x="2724.5" y="466.1926">DIMH: int</text><line style="stroke:#181818;stroke-width:0.5;" x1="2705.5" x2="2963.5" y1="473.4944" y2="473.4944"/><ellipse cx="2715.5" cy="487.1428" fill="#84BE84" rx="3" ry="3" style="stroke:#038048;stroke-width:1.0;"/><text fill="#000000" font-family="sans-serif" font-size="14" lengthAdjust="spacing" textLength="234" x="2724.5" y="490.4895">Display(renderer: SDL_Renderer*)</text><ellipse cx="2715.5" cy="503.4397" fill="#84BE84" rx="3" ry="3" style="stroke:#038048;stroke-width:1.0;"/><text fill="#000000" font-family="sans-serif" font-size="14" lengthAdjust="spacing" textLength="189" x="2724.5" y="506.7864">getTexture(): SDL_Texture*</text><ellipse cx="2715.5" cy="519.7366" fill="#84BE84" rx="3" ry="3" style="stroke:#038048;stroke-width:1.0;"/><text fill="#000000" font-family="sans-serif" font-size="14" lengthAdjust="spacing" textLength="98" x="2724.5" y="523.0832">getDIMW(): int</text><ellipse cx="2715.5" cy="536.0334" fill="#84BE84" rx="3" ry="3" style="stroke:#038048;stroke-width:1.0;"/><text fill="#000000" font-family="sans-serif" font-size="14" lengthAdjust="spacing" textLength="95" x="2724.5" y="539.3801">getDIMH(): int</text></g><!--class Playership--><g id="elem_Playership"><rect codeLine="14" fill="#F1F1F1" height="308.75" id="Playership" rx="2.5" ry="2.5" style="stroke:#181818;stroke-width:0.5;" width="789" x="7" y="294.97"/><ellipse cx="362.25" cy="310.97" fill="#ADD1B2" rx="11" ry="11" style="stroke:#181818;stroke-width:1.0;"/><path d="M365.2188,316.6106 Q364.6406,316.9075 364,317.0481 Q363.3594,317.2044 362.6563,317.2044 Q360.1563,317.2044 358.8281,315.5638 Q357.5156,313.9075 357.5156,310.7825 Q357.5156,307.6575 358.8281,306.0013 Q360.1563,304.345 362.6563,304.345 Q363.3594,304.345 364,304.5013 Q364.6563,304.6575 365.2188,304.9544 L365.2188,307.6731 Q364.5938,307.095 364,306.8294 Q363.4063,306.5481 362.7813,306.5481 Q361.4375,306.5481 360.75,307.6263 Q360.0625,308.6888 360.0625,310.7825 Q360.0625,312.8763 360.75,313.9544 Q361.4375,315.0169 362.7813,315.0169 Q363.4063,315.0169 364,314.7513 Q364.5938,314.47 365.2188,313.8919 L365.2188,316.6106 Z " fill="#000000"/><text fill="#000000" font-family="sans-serif" font-size="14" lengthAdjust="spacing" textLength="70" x="382.75" y="315.8167">Playership</text><line style="stroke:#181818;stroke-width:0.5;" x1="8" x2="795" y1="326.97" y2="326.97"/><rect fill="none" height="6" style="stroke:#C82930;stroke-width:1.0;" width="6" x="15" y="337.6184"/><text fill="#000000" font-family="sans-serif" font-size="14" lengthAdjust="spacing" textLength="119" x="27" y="343.9651">position: Position</text><rect fill="none" height="6" style="stroke:#C82930;stroke-width:1.0;" width="6" x="15" y="353.9153"/><text fill="#000000" font-family="sans-serif" font-size="14" lengthAdjust="spacing" textLength="63" x="27" y="360.262">width: int</text><rect fill="none" height="6" style="stroke:#C82930;stroke-width:1.0;" width="6" x="15" y="370.2122"/><text fill="#000000" font-family="sans-serif" font-size="14" lengthAdjust="spacing" textLength="70" x="27" y="376.5589">height: int</text><rect fill="none" height="6" style="stroke:#C82930;stroke-width:1.0;" width="6" x="15" y="386.5091"/><text fill="#000000" font-family="sans-serif" font-size="14" lengthAdjust="spacing" textLength="153" x="27" y="392.8557">surface: SDL_Surface*</text><rect fill="none" height="6" style="stroke:#C82930;stroke-width:1.0;" width="6" x="15" y="402.8059"/><text fill="#000000" font-family="sans-serif" font-size="14" lengthAdjust="spacing" textLength="152" x="27" y="409.1526">texture: SDL_Texture*</text><rect fill="none" height="6" style="stroke:#C82930;stroke-width:1.0;" width="6" x="15" y="419.1028"/><text fill="#000000" font-family="sans-serif" font-size="14" lengthAdjust="spacing" textLength="45" x="27" y="425.4495">HP: int</text><line style="stroke:#181818;stroke-width:0.5;" x1="8" x2="795" y1="432.7513" y2="432.7513"/><ellipse cx="18" cy="446.3997" fill="#84BE84" rx="3" ry="3" style="stroke:#038048;stroke-width:1.0;"/><text fill="#000000" font-family="sans-serif" font-size="14" lengthAdjust="spacing" textLength="80" x="27" y="449.7464">Playership()</text><ellipse cx="18" cy="462.6966" fill="#84BE84" rx="3" ry="3" style="stroke:#038048;stroke-width:1.0;"/><text fill="#000000" font-family="sans-serif" font-size="14" lengthAdjust="spacing" textLength="274" x="27" y="466.0432">setSurface(surface: SDL_Surface*): void</text><ellipse cx="18" cy="478.9934" fill="#84BE84" rx="3" ry="3" style="stroke:#038048;stroke-width:1.0;"/><text fill="#000000" font-family="sans-serif" font-size="14" lengthAdjust="spacing" textLength="187" x="27" y="482.3401">getSurface(): SDL_Surface*</text><ellipse cx="18" cy="495.2903" fill="#84BE84" rx="3" ry="3" style="stroke:#038048;stroke-width:1.0;"/><text fill="#000000" font-family="sans-serif" font-size="14" lengthAdjust="spacing" textLength="274" x="27" y="498.637">setTexture(texture: SDL_Texture*): void</text><ellipse cx="18" cy="511.5872" fill="#84BE84" rx="3" ry="3" style="stroke:#038048;stroke-width:1.0;"/><text fill="#000000" font-family="sans-serif" font-size="14" lengthAdjust="spacing" textLength="189" x="27" y="514.9339">getTexture(): SDL_Texture*</text><ellipse cx="18" cy="527.8841" fill="#84BE84" rx="3" ry="3" style="stroke:#038048;stroke-width:1.0;"/><text fill="#000000" font-family="sans-serif" font-size="14" lengthAdjust="spacing" textLength="310" x="27" y="531.2307">moveShip(keyboardState: const Uint8*): void</text><ellipse cx="18" cy="544.1809" fill="#84BE84" rx="3" ry="3" style="stroke:#038048;stroke-width:1.0;"/><text fill="#000000" font-family="sans-serif" font-size="14" lengthAdjust="spacing" textLength="763" x="27" y="547.5276">firePlayer(Pmanager: ProjectileManager, weaponManager: WeaponManager, keyboardState: const Uint8*): void</text><ellipse cx="18" cy="560.4778" fill="#84BE84" rx="3" ry="3" style="stroke:#038048;stroke-width:1.0;"/><text fill="#000000" font-family="sans-serif" font-size="14" lengthAdjust="spacing" textLength="600" x="27" y="563.8245">changeWeapon(weaponManager: WeaponManager, keyboardState: const Uint8*): void</text><ellipse cx="18" cy="576.7747" fill="#84BE84" rx="3" ry="3" style="stroke:#038048;stroke-width:1.0;"/><text fill="#000000" font-family="sans-serif" font-size="14" lengthAdjust="spacing" textLength="162" x="27" y="580.1214">setHP(newHP: int): void</text><ellipse cx="18" cy="593.0716" fill="#84BE84" rx="3" ry="3" style="stroke:#038048;stroke-width:1.0;"/><text fill="#000000" font-family="sans-serif" font-size="14" lengthAdjust="spacing" textLength="162" x="27" y="596.4182">HPnullPlayership(): bool</text></g><!--class Projectile--><g id="elem_Projectile"><rect codeLine="34" fill="#F1F1F1" height="96.8906" id="Projectile" rx="2.5" ry="2.5" style="stroke:#181818;stroke-width:0.5;" width="308" x="2901.5" y="64.04"/><ellipse cx="3019.75" cy="80.04" fill="#ADD1B2" rx="11" ry="11" style="stroke:#181818;stroke-width:1.0;"/><path d="M3022.7188,85.6806 Q3022.1406,85.9775 3021.5,86.1181 Q3020.8594,86.2744 3020.1563,86.2744 Q3017.6563,86.2744 3016.3281,84.6338 Q3015.0156,82.9775 3015.0156,79.8525 Q3015.0156,76.7275 3016.3281,75.0713 Q3017.6563,73.415 3020.1563,73.415 Q3020.8594,73.415 3021.5,73.5713 Q3022.1563,73.7275 3022.7188,74.0244 L3022.7188,76.7431 Q3022.0938,76.165 3021.5,75.8994 Q3020.9063,75.6181 3020.2813,75.6181 Q3018.9375,75.6181 3018.25,76.6963 Q3017.5625,77.7588 3017.5625,79.8525 Q3017.5625,81.9463 3018.25,83.0244 Q3018.9375,84.0869 3020.2813,84.0869 Q3020.9063,84.0869 3021.5,83.8213 Q3022.0938,83.54 3022.7188,82.9619 L3022.7188,85.6806 Z " fill="#000000"/><text fill="#000000" font-family="sans-serif" font-size="14" lengthAdjust="spacing" textLength="63" x="3040.25" y="84.8867">Projectile</text><line style="stroke:#181818;stroke-width:0.5;" x1="2902.5" x2="3208.5" y1="96.04" y2="96.04"/><rect fill="none" height="6" style="stroke:#C82930;stroke-width:1.0;" width="6" x="2909.5" y="106.6884"/><text fill="#000000" font-family="sans-serif" font-size="14" lengthAdjust="spacing" textLength="119" x="2921.5" y="113.0351">position: Position</text><rect fill="none" height="6" style="stroke:#C82930;stroke-width:1.0;" width="6" x="2909.5" y="122.9853"/><text fill="#000000" font-family="sans-serif" font-size="14" lengthAdjust="spacing" textLength="82" x="2921.5" y="129.332">speed: float</text><line style="stroke:#181818;stroke-width:0.5;" x1="2902.5" x2="3208.5" y1="136.6338" y2="136.6338"/><ellipse cx="2912.5" cy="150.2822" fill="#84BE84" rx="3" ry="3" style="stroke:#038048;stroke-width:1.0;"/><text fill="#000000" font-family="sans-serif" font-size="14" lengthAdjust="spacing" textLength="282" x="2921.5" y="153.6289">Projectile(position: Position, speed: float)</text></g><!--class ProjectileManager--><g id="elem_ProjectileManager"><rect codeLine="42" fill="#F1F1F1" height="129.4844" id="ProjectileManager" rx="2.5" ry="2.5" style="stroke:#181818;stroke-width:0.5;" width="560" x="2109.5" y="384.6"/><ellipse cx="2323.75" cy="400.6" fill="#ADD1B2" rx="11" ry="11" style="stroke:#181818;stroke-width:1.0;"/><path d="M2326.7188,406.2406 Q2326.1406,406.5375 2325.5,406.6781 Q2324.8594,406.8344 2324.1563,406.8344 Q2321.6563,406.8344 2320.3281,405.1938 Q2319.0156,403.5375 2319.0156,400.4125 Q2319.0156,397.2875 2320.3281,395.6313 Q2321.6563,393.975 2324.1563,393.975 Q2324.8594,393.975 2325.5,394.1313 Q2326.1563,394.2875 2326.7188,394.5844 L2326.7188,397.3031 Q2326.0938,396.725 2325.5,396.4594 Q2324.9063,396.1781 2324.2813,396.1781 Q2322.9375,396.1781 2322.25,397.2563 Q2321.5625,398.3188 2321.5625,400.4125 Q2321.5625,402.5063 2322.25,403.5844 Q2322.9375,404.6469 2324.2813,404.6469 Q2324.9063,404.6469 2325.5,404.3813 Q2326.0938,404.1 2326.7188,403.5219 L2326.7188,406.2406 Z " fill="#000000"/><text fill="#000000" font-family="sans-serif" font-size="14" lengthAdjust="spacing" textLength="123" x="2344.25" y="405.4467">ProjectileManager</text><line style="stroke:#181818;stroke-width:0.5;" x1="2110.5" x2="2668.5" y1="416.6" y2="416.6"/><rect fill="none" height="6" style="stroke:#C82930;stroke-width:1.0;" width="6" x="2117.5" y="427.2484"/><text fill="#000000" font-family="sans-serif" font-size="14" lengthAdjust="spacing" textLength="242" x="2129.5" y="433.5951">projectiles: std::vector&lt;Projectile&gt;</text><line style="stroke:#181818;stroke-width:0.5;" x1="2110.5" x2="2668.5" y1="440.8969" y2="440.8969"/><ellipse cx="2120.5" cy="454.5453" fill="#84BE84" rx="3" ry="3" style="stroke:#038048;stroke-width:1.0;"/><text fill="#000000" font-family="sans-serif" font-size="14" lengthAdjust="spacing" textLength="133" x="2129.5" y="457.892">ProjectileManager()</text><ellipse cx="2120.5" cy="470.8422" fill="#84BE84" rx="3" ry="3" style="stroke:#038048;stroke-width:1.0;"/><text fill="#000000" font-family="sans-serif" font-size="14" lengthAdjust="spacing" textLength="123" x="2129.5" y="474.1889">UpdateProj(): void</text><ellipse cx="2120.5" cy="487.1391" fill="#84BE84" rx="3" ry="3" style="stroke:#038048;stroke-width:1.0;"/><text fill="#000000" font-family="sans-serif" font-size="14" lengthAdjust="spacing" textLength="283" x="2129.5" y="490.4857">DrawProj(renderer: SDL_Renderer*): void</text><ellipse cx="2120.5" cy="503.4359" fill="#84BE84" rx="3" ry="3" style="stroke:#038048;stroke-width:1.0;"/><text fill="#000000" font-family="sans-serif" font-size="14" lengthAdjust="spacing" textLength="534" x="2129.5" y="506.7826">hasProjectileCollided(player: Playership*, itabPtr: std::vector&lt;Invader&gt;*): void</text></g><!--class Weapon--><g id="elem_Weapon"><rect codeLine="51" fill="#F1F1F1" height="113.1875" id="Weapon" rx="2.5" ry="2.5" style="stroke:#181818;stroke-width:0.5;" width="171" x="3245" y="55.89"/><ellipse cx="3297.75" cy="71.89" fill="#ADD1B2" rx="11" ry="11" style="stroke:#181818;stroke-width:1.0;"/><path d="M3300.7188,77.5306 Q3300.1406,77.8275 3299.5,77.9681 Q3298.8594,78.1244 3298.1563,78.1244 Q3295.6563,78.1244 3294.3281,76.4837 Q3293.0156,74.8275 3293.0156,71.7025 Q3293.0156,68.5775 3294.3281,66.9212 Q3295.6563,65.265 3298.1563,65.265 Q3298.8594,65.265 3299.5,65.4212 Q3300.1563,65.5775 3300.7188,65.8744 L3300.7188,68.5931 Q3300.0938,68.015 3299.5,67.7494 Q3298.9063,67.4681 3298.2813,67.4681 Q3296.9375,67.4681 3296.25,68.5462 Q3295.5625,69.6087 3295.5625,71.7025 Q3295.5625,73.7962 3296.25,74.8744 Q3296.9375,75.9369 3298.2813,75.9369 Q3298.9063,75.9369 3299.5,75.6712 Q3300.0938,75.39 3300.7188,74.8119 L3300.7188,77.5306 Z " fill="#000000"/><text fill="#000000" font-family="sans-serif" font-size="14" lengthAdjust="spacing" textLength="57" x="3318.25" y="76.7367">Weapon</text><line style="stroke:#181818;stroke-width:0.5;" x1="3246" x2="3415" y1="87.89" y2="87.89"/><rect fill="none" height="6" style="stroke:#C82930;stroke-width:1.0;" width="6" x="3253" y="98.5384"/><text fill="#000000" font-family="sans-serif" font-size="14" lengthAdjust="spacing" textLength="79" x="3265" y="104.8851">fireRate: int</text><rect fill="none" height="6" style="stroke:#C82930;stroke-width:1.0;" width="6" x="3253" y="114.8353"/><text fill="#000000" font-family="sans-serif" font-size="14" lengthAdjust="spacing" textLength="145" x="3265" y="121.182">projectileType: string</text><line style="stroke:#181818;stroke-width:0.5;" x1="3246" x2="3415" y1="128.4838" y2="128.4838"/><ellipse cx="3256" cy="142.1322" fill="#84BE84" rx="3" ry="3" style="stroke:#038048;stroke-width:1.0;"/><text fill="#000000" font-family="sans-serif" font-size="14" lengthAdjust="spacing" textLength="67" x="3265" y="145.4789">Weapon()</text><ellipse cx="3256" cy="158.4291" fill="#84BE84" rx="3" ry="3" style="stroke:#038048;stroke-width:1.0;"/><text fill="#000000" font-family="sans-serif" font-size="14" lengthAdjust="spacing" textLength="99" x="3265" y="161.7757">canFire(): bool</text></g><!--class WeaponManager--><g id="elem_WeaponManager"><rect codeLine="59" fill="#F1F1F1" height="129.4844" id="WeaponManager" rx="2.5" ry="2.5" style="stroke:#181818;stroke-width:0.5;" width="331" x="1423" y="384.6"/><ellipse cx="1525.75" cy="400.6" fill="#ADD1B2" rx="11" ry="11" style="stroke:#181818;stroke-width:1.0;"/><path d="M1528.7188,406.2406 Q1528.1406,406.5375 1527.5,406.6781 Q1526.8594,406.8344 1526.1563,406.8344 Q1523.6563,406.8344 1522.3281,405.1938 Q1521.0156,403.5375 1521.0156,400.4125 Q1521.0156,397.2875 1522.3281,395.6313 Q1523.6563,393.975 1526.1563,393.975 Q1526.8594,393.975 1527.5,394.1313 Q1528.1563,394.2875 1528.7188,394.5844 L1528.7188,397.3031 Q1528.0938,396.725 1527.5,396.4594 Q1526.9063,396.1781 1526.2813,396.1781 Q1524.9375,396.1781 1524.25,397.2563 Q1523.5625,398.3188 1523.5625,400.4125 Q1523.5625,402.5063 1524.25,403.5844 Q1524.9375,404.6469 1526.2813,404.6469 Q1526.9063,404.6469 1527.5,404.3813 Q1528.0938,404.1 1528.7188,403.5219 L1528.7188,406.2406 Z " fill="#000000"/><text fill="#000000" font-family="sans-serif" font-size="14" lengthAdjust="spacing" textLength="117" x="1546.25" y="405.4467">WeaponManager</text><line style="stroke:#181818;stroke-width:0.5;" x1="1424" x2="1753" y1="416.6" y2="416.6"/><rect fill="none" height="6" style="stroke:#C82930;stroke-width:1.0;" width="6" x="1431" y="427.2484"/><text fill="#000000" font-family="sans-serif" font-size="14" lengthAdjust="spacing" textLength="180" x="1443" y="433.5951">currentWeapon: Weapon*</text><rect fill="none" height="6" style="stroke:#C82930;stroke-width:1.0;" width="6" x="1431" y="443.5453"/><text fill="#000000" font-family="sans-serif" font-size="14" lengthAdjust="spacing" textLength="228" x="1443" y="449.892">weapons: std::vector&lt;Weapon&gt;</text><line style="stroke:#181818;stroke-width:0.5;" x1="1424" x2="1753" y1="457.1938" y2="457.1938"/><ellipse cx="1434" cy="470.8422" fill="#84BE84" rx="3" ry="3" style="stroke:#038048;stroke-width:1.0;"/><text fill="#000000" font-family="sans-serif" font-size="14" lengthAdjust="spacing" textLength="127" x="1443" y="474.1889">WeaponManager()</text><ellipse cx="1434" cy="487.1391" fill="#84BE84" rx="3" ry="3" style="stroke:#038048;stroke-width:1.0;"/><text fill="#000000" font-family="sans-serif" font-size="14" lengthAdjust="spacing" textLength="305" x="1443" y="490.4857">changeWeapon(newWeaponIndex: int): void</text><ellipse cx="1434" cy="503.4359" fill="#84BE84" rx="3" ry="3" style="stroke:#038048;stroke-width:1.0;"/><text fill="#000000" font-family="sans-serif" font-size="14" lengthAdjust="spacing" textLength="178" x="1443" y="506.7826">getProjectileType(): string</text></g><!--class Invader--><g id="elem_Invader"><rect codeLine="68" fill="#F1F1F1" height="145.7813" id="Invader" rx="2.5" ry="2.5" style="stroke:#181818;stroke-width:0.5;" width="205" x="1183" y="376.45"/><ellipse cx="1256.25" cy="392.45" fill="#ADD1B2" rx="11" ry="11" style="stroke:#181818;stroke-width:1.0;"/><path d="M1259.2188,398.0906 Q1258.6406,398.3875 1258,398.5281 Q1257.3594,398.6844 1256.6563,398.6844 Q1254.1563,398.6844 1252.8281,397.0438 Q1251.5156,395.3875 1251.5156,392.2625 Q1251.5156,389.1375 1252.8281,387.4813 Q1254.1563,385.825 1256.6563,385.825 Q1257.3594,385.825 1258,385.9813 Q1258.6563,386.1375 1259.2188,386.4344 L1259.2188,389.1531 Q1258.5938,388.575 1258,388.3094 Q1257.4063,388.0281 1256.7813,388.0281 Q1255.4375,388.0281 1254.75,389.1063 Q1254.0625,390.1688 1254.0625,392.2625 Q1254.0625,394.3563 1254.75,395.4344 Q1255.4375,396.4969 1256.7813,396.4969 Q1257.4063,396.4969 1258,396.2313 Q1258.5938,395.95 1259.2188,395.3719 L1259.2188,398.0906 Z " fill="#000000"/><text fill="#000000" font-family="sans-serif" font-size="14" lengthAdjust="spacing" textLength="50" x="1276.75" y="397.2967">Invader</text><line style="stroke:#181818;stroke-width:0.5;" x1="1184" x2="1387" y1="408.45" y2="408.45"/><rect fill="none" height="6" style="stroke:#C82930;stroke-width:1.0;" width="6" x="1191" y="419.0984"/><text fill="#000000" font-family="sans-serif" font-size="14" lengthAdjust="spacing" textLength="119" x="1203" y="425.4451">position: Position</text><rect fill="none" height="6" style="stroke:#C82930;stroke-width:1.0;" width="6" x="1191" y="435.3953"/><text fill="#000000" font-family="sans-serif" font-size="14" lengthAdjust="spacing" textLength="69" x="1203" y="441.742">alive: bool</text><line style="stroke:#181818;stroke-width:0.5;" x1="1184" x2="1387" y1="449.0438" y2="449.0438"/><ellipse cx="1194" cy="462.6922" fill="#84BE84" rx="3" ry="3" style="stroke:#038048;stroke-width:1.0;"/><text fill="#000000" font-family="sans-serif" font-size="14" lengthAdjust="spacing" textLength="179" x="1203" y="466.0389">Invader(position: Position)</text><text fill="#000000" font-family="sans-serif" font-size="14" lengthAdjust="spacing" textLength="4" x="1203" y="482.3357"> </text><ellipse cx="1194" cy="495.2859" fill="#84BE84" rx="3" ry="3" style="stroke:#038048;stroke-width:1.0;"/><text fill="#000000" font-family="sans-serif" font-size="14" lengthAdjust="spacing" textLength="106" x="1203" y="498.6326">setDead(): void</text><ellipse cx="1194" cy="511.5828" fill="#84BE84" rx="3" ry="3" style="stroke:#038048;stroke-width:1.0;"/><text fill="#000000" font-family="sans-serif" font-size="14" lengthAdjust="spacing" textLength="97" x="1203" y="514.9295">isDead(): bool</text></g><!--class InvadersManager--><g id="elem_InvadersManager"><rect codeLine="78" fill="#F1F1F1" height="178.375" id="InvadersManager" rx="2.5" ry="2.5" style="stroke:#181818;stroke-width:0.5;" width="341" x="2999" y="360.16"/><ellipse cx="3106.25" cy="376.16" fill="#ADD1B2" rx="11" ry="11" style="stroke:#181818;stroke-width:1.0;"/><path d="M3109.2188,381.8006 Q3108.6406,382.0975 3108,382.2381 Q3107.3594,382.3944 3106.6563,382.3944 Q3104.1563,382.3944 3102.8281,380.7538 Q3101.5156,379.0975 3101.5156,375.9725 Q3101.5156,372.8475 3102.8281,371.1913 Q3104.1563,369.535 3106.6563,369.535 Q3107.3594,369.535 3108,369.6913 Q3108.6563,369.8475 3109.2188,370.1444 L3109.2188,372.8631 Q3108.5938,372.285 3108,372.0194 Q3107.4063,371.7381 3106.7813,371.7381 Q3105.4375,371.7381 3104.75,372.8163 Q3104.0625,373.8788 3104.0625,375.9725 Q3104.0625,378.0663 3104.75,379.1444 Q3105.4375,380.2069 3106.7813,380.2069 Q3107.4063,380.2069 3108,379.9413 Q3108.5938,379.66 3109.2188,379.0819 L3109.2188,381.8006 Z " fill="#000000"/><text fill="#000000" font-family="sans-serif" font-size="14" lengthAdjust="spacing" textLength="118" x="3126.75" y="381.0067">InvadersManager</text><line style="stroke:#181818;stroke-width:0.5;" x1="3000" x2="3339" y1="392.16" y2="392.16"/><rect fill="none" height="6" style="stroke:#C82930;stroke-width:1.0;" width="6" x="3007" y="402.8084"/><text fill="#000000" font-family="sans-serif" font-size="14" lengthAdjust="spacing" textLength="223" x="3019" y="409.1551">invaders: std::vector&lt;Invader*&gt;</text><rect fill="none" height="6" style="stroke:#C82930;stroke-width:1.0;" width="6" x="3007" y="419.1053"/><text fill="#000000" font-family="sans-serif" font-size="14" lengthAdjust="spacing" textLength="59" x="3019" y="425.452">rows: int</text><rect fill="none" height="6" style="stroke:#C82930;stroke-width:1.0;" width="6" x="3007" y="435.4022"/><text fill="#000000" font-family="sans-serif" font-size="14" lengthAdjust="spacing" textLength="54" x="3019" y="441.7489">cols: int</text><line style="stroke:#181818;stroke-width:0.5;" x1="3000" x2="3339" y1="449.0506" y2="449.0506"/><ellipse cx="3010" cy="462.6991" fill="#84BE84" rx="3" ry="3" style="stroke:#038048;stroke-width:1.0;"/><text fill="#000000" font-family="sans-serif" font-size="14" lengthAdjust="spacing" textLength="249" x="3019" y="466.0457">InvadersManager(rows: int, cols: int)</text><text fill="#000000" font-family="sans-serif" font-size="14" lengthAdjust="spacing" textLength="4" x="3019" y="482.3426"> </text><ellipse cx="3010" cy="495.2928" fill="#84BE84" rx="3" ry="3" style="stroke:#038048;stroke-width:1.0;"/><text fill="#000000" font-family="sans-serif" font-size="14" lengthAdjust="spacing" textLength="155" x="3019" y="498.6395">UpdateInvaders(): void</text><ellipse cx="3010" cy="511.5897" fill="#84BE84" rx="3" ry="3" style="stroke:#038048;stroke-width:1.0;"/><text fill="#000000" font-family="sans-serif" font-size="14" lengthAdjust="spacing" textLength="315" x="3019" y="514.9364">DrawInvaders(renderer: SDL_Renderer*): void</text><ellipse cx="3010" cy="527.8866" fill="#84BE84" rx="3" ry="3" style="stroke:#038048;stroke-width:1.0;"/><text fill="#000000" font-family="sans-serif" font-size="14" lengthAdjust="spacing" textLength="306" x="3019" y="531.2332">hasInvaderCollided(player: Playership*): bool</text></g><!--class GameState--><g id="elem_GameState"><rect codeLine="90" fill="#F1F1F1" height="129.4844" id="GameState" rx="2.5" ry="2.5" style="stroke:#181818;stroke-width:0.5;" width="109" x="3375" y="384.6"/><ellipse cx="3390" cy="400.6" fill="#EB937F" rx="11" ry="11" style="stroke:#181818;stroke-width:1.0;"/><path d="M3394.1094,406.6 L3386.3906,406.6 L3386.3906,394.2094 L3394.1094,394.2094 L3394.1094,396.3656 L3388.8438,396.3656 L3388.8438,399.0375 L3393.6094,399.0375 L3393.6094,401.1938 L3388.8438,401.1938 L3388.8438,404.4438 L3394.1094,404.4438 L3394.1094,406.6 Z " fill="#000000"/><text fill="#000000" font-family="sans-serif" font-size="14" lengthAdjust="spacing" textLength="77" x="3404" y="405.4467">GameState</text><line style="stroke:#181818;stroke-width:0.5;" x1="3376" x2="3483" y1="416.6" y2="416.6"/><text fill="#000000" font-family="sans-serif" font-size="14" lengthAdjust="spacing" textLength="43" x="3381" y="433.5951">Menu,</text><text fill="#000000" font-family="sans-serif" font-size="14" lengthAdjust="spacing" textLength="62" x="3381" y="449.892">Running,</text><text fill="#000000" font-family="sans-serif" font-size="14" lengthAdjust="spacing" textLength="49" x="3381" y="466.1889">Exiting,</text><text fill="#000000" font-family="sans-serif" font-size="14" lengthAdjust="spacing" textLength="56" x="3381" y="482.4857">Paused,</text><text fill="#000000" font-family="sans-serif" font-size="14" lengthAdjust="spacing" textLength="86" x="3381" y="498.7826">loosescreen</text><line style="stroke:#181818;stroke-width:0.5;" x1="3376" x2="3483" y1="506.0844" y2="506.0844"/></g><!--class Partie--><g id="elem_Partie"><rect codeLine="98" fill="#F1F1F1" height="210.9688" id="Partie" rx="2.5" ry="2.5" style="stroke:#181818;stroke-width:0.5;" width="288" x="2578.5" y="7"/><ellipse cx="2698.75" cy="23" fill="#ADD1B2" rx="11" ry="11" style="stroke:#181818;stroke-width:1.0;"/><path d="M2701.7188,28.6406 Q2701.1406,28.9375 2700.5,29.0781 Q2699.8594,29.2344 2699.1563,29.2344 Q2696.6563,29.2344 2695.3281,27.5938 Q2694.0156,25.9375 2694.0156,22.8125 Q2694.0156,19.6875 2695.3281,18.0313 Q2696.6563,16.375 2699.1563,16.375 Q2699.8594,16.375 2700.5,16.5313 Q2701.1563,16.6875 2701.7188,16.9844 L2701.7188,19.7031 Q2701.0938,19.125 2700.5,18.8594 Q2699.9063,18.5781 2699.2813,18.5781 Q2697.9375,18.5781 2697.25,19.6563 Q2696.5625,20.7188 2696.5625,22.8125 Q2696.5625,24.9063 2697.25,25.9844 Q2697.9375,27.0469 2699.2813,27.0469 Q2699.9063,27.0469 2700.5,26.7813 Q2701.0938,26.5 2701.7188,25.9219 L2701.7188,28.6406 Z " fill="#000000"/><text fill="#000000" font-family="sans-serif" font-size="14" lengthAdjust="spacing" textLength="39" x="2719.25" y="27.8467">Partie</text><line style="stroke:#181818;stroke-width:0.5;" x1="2579.5" x2="2865.5" y1="39" y2="39"/><rect fill="none" height="6" style="stroke:#C82930;stroke-width:1.0;" width="6" x="2586.5" y="49.6484"/><text fill="#000000" font-family="sans-serif" font-size="14" lengthAdjust="spacing" textLength="112" x="2598.5" y="55.9951">display: Display*</text><rect fill="none" height="6" style="stroke:#C82930;stroke-width:1.0;" width="6" x="2586.5" y="65.9453"/><text fill="#000000" font-family="sans-serif" font-size="14" lengthAdjust="spacing" textLength="127" x="2598.5" y="72.292">player: Playership*</text><rect fill="none" height="6" style="stroke:#C82930;stroke-width:1.0;" width="6" x="2586.5" y="82.2422"/><text fill="#000000" font-family="sans-serif" font-size="14" lengthAdjust="spacing" textLength="262" x="2598.5" y="88.5889">projectileManager: ProjectileManager*</text><rect fill="none" height="6" style="stroke:#C82930;stroke-width:1.0;" width="6" x="2586.5" y="98.5391"/><text fill="#000000" font-family="sans-serif" font-size="14" lengthAdjust="spacing" textLength="248" x="2598.5" y="104.8857">weaponManager: WeaponManager*</text><rect fill="none" height="6" style="stroke:#C82930;stroke-width:1.0;" width="6" x="2586.5" y="114.8359"/><text fill="#000000" font-family="sans-serif" font-size="14" lengthAdjust="spacing" textLength="252" x="2598.5" y="121.1826">invadersManager: InvadersManager*</text><rect fill="none" height="6" style="stroke:#C82930;stroke-width:1.0;" width="6" x="2586.5" y="131.1328"/><text fill="#000000" font-family="sans-serif" font-size="14" lengthAdjust="spacing" textLength="161" x="2598.5" y="137.4795">gameState: GameState</text><line style="stroke:#181818;stroke-width:0.5;" x1="2579.5" x2="2865.5" y1="144.7813" y2="144.7813"/><ellipse cx="2589.5" cy="158.4297" fill="#84BE84" rx="3" ry="3" style="stroke:#038048;stroke-width:1.0;"/><text fill="#000000" font-family="sans-serif" font-size="14" lengthAdjust="spacing" textLength="113" x="2598.5" y="161.7764">MainLoop(): void</text><ellipse cx="2589.5" cy="174.7266" fill="#84BE84" rx="3" ry="3" style="stroke:#038048;stroke-width:1.0;"/><text fill="#000000" font-family="sans-serif" font-size="14" lengthAdjust="spacing" textLength="142" x="2598.5" y="178.0732">HandleEvents(): void</text><ellipse cx="2589.5" cy="191.0234" fill="#84BE84" rx="3" ry="3" style="stroke:#038048;stroke-width:1.0;"/><text fill="#000000" font-family="sans-serif" font-size="14" lengthAdjust="spacing" textLength="138" x="2598.5" y="194.3701">UpdateGame(): void</text><ellipse cx="2589.5" cy="207.3203" fill="#84BE84" rx="3" ry="3" style="stroke:#038048;stroke-width:1.0;"/><text fill="#000000" font-family="sans-serif" font-size="14" lengthAdjust="spacing" textLength="139" x="2598.5" y="210.667">RenderGame(): void</text></g><!--class InvaderManager--><g id="elem_InvaderManager"><rect fill="#F1F1F1" height="48" id="InvaderManager" rx="2.5" ry="2.5" style="stroke:#181818;stroke-width:0.5;" width="142" x="1006.5" y="425.35"/><ellipse cx="1021.5" cy="441.35" fill="#ADD1B2" rx="11" ry="11" style="stroke:#181818;stroke-width:1.0;"/><path d="M1024.4688,446.9906 Q1023.8906,447.2875 1023.25,447.4281 Q1022.6094,447.5844 1021.9063,447.5844 Q1019.4063,447.5844 1018.0781,445.9438 Q1016.7656,444.2875 1016.7656,441.1625 Q1016.7656,438.0375 1018.0781,436.3813 Q1019.4063,434.725 1021.9063,434.725 Q1022.6094,434.725 1023.25,434.8813 Q1023.9063,435.0375 1024.4688,435.3344 L1024.4688,438.0531 Q1023.8438,437.475 1023.25,437.2094 Q1022.6563,436.9281 1022.0313,436.9281 Q1020.6875,436.9281 1020,438.0063 Q1019.3125,439.0688 1019.3125,441.1625 Q1019.3125,443.2563 1020,444.3344 Q1020.6875,445.3969 1022.0313,445.3969 Q1022.6563,445.3969 1023.25,445.1313 Q1023.8438,444.85 1024.4688,444.2719 L1024.4688,446.9906 Z " fill="#000000"/><text fill="#000000" font-family="sans-serif" font-size="14" lengthAdjust="spacing" textLength="110" x="1035.5" y="446.1967">InvaderManager</text><line style="stroke:#181818;stroke-width:0.5;" x1="1007.5" x2="1147.5" y1="457.35" y2="457.35"/><line style="stroke:#181818;stroke-width:0.5;" x1="1007.5" x2="1147.5" y1="465.35" y2="465.35"/></g><!--reverse link Partie to Display--><g id="link_Partie_Display"><path codeLine="112" d="M2761.2859,229.4405 C2775.5659,272.1405 2788.17,309.83 2802.17,351.68 " fill="none" id="Partie-backto-Display" style="stroke:#181818;stroke-width:1.0;"/><polygon fill="none" points="2757.48,218.06,2755.5895,225.0189,2761.2859,229.4405,2763.1765,222.4816,2757.48,218.06" style="stroke:#181818;stroke-width:1.0;"/><text fill="#000000" font-family="sans-serif" font-size="13" lengthAdjust="spacing" textLength="72" x="2773.5" y="261.0369">Renders on</text></g><!--reverse link Partie to Playership--><g id="link_Partie_Playership"><path codeLine="113" d="M2566.2403,121.7973 C2267.6703,139.1773 1573.11,188.15 989.5,294.97 C926.59,306.49 860.49,321.15 796.26,336.82 " fill="none" id="Partie-backto-Playership" style="stroke:#181818;stroke-width:1.0;"/><polygon fill="none" points="2578.22,121.1,2571.9977,117.4554,2566.2403,121.7973,2572.4626,125.4419,2578.22,121.1" style="stroke:#181818;stroke-width:1.0;"/><text fill="#000000" font-family="sans-serif" font-size="13" lengthAdjust="spacing" textLength="126" x="1272.5" y="261.0369">Manages the player</text></g><!--reverse link Partie to ProjectileManager--><g id="link_Partie_ProjectileManager"><path codeLine="114" d="M2610.0482,226.5687 C2555.8482,281.0687 2499.78,337.45 2453.05,384.44 " fill="none" id="Partie-backto-ProjectileManager" style="stroke:#181818;stroke-width:1.0;"/><polygon fill="none" points="2618.51,218.06,2611.4429,219.4937,2610.0482,226.5687,2617.1153,225.1349,2618.51,218.06" style="stroke:#181818;stroke-width:1.0;"/><text fill="#000000" font-family="sans-serif" font-size="13" lengthAdjust="spacing" textLength="127" x="2587.5" y="261.0369">Manages projectiles</text></g><!--reverse link Partie to WeaponManager--><g id="link_Partie_WeaponManager"><path codeLine="115" d="M2566.1844,120.4072 C2272.2644,134.8072 1638.33,173.99 1572.5,247.97 C1540.14,284.34 1547.8,340.57 1561.47,384.22 " fill="none" id="Partie-backto-WeaponManager" style="stroke:#181818;stroke-width:1.0;"/><polygon fill="none" points="2578.17,119.82,2571.9815,116.1184,2566.1844,120.4072,2572.3729,124.1088,2578.17,119.82" style="stroke:#181818;stroke-width:1.0;"/><text fill="#000000" font-family="sans-serif" font-size="13" lengthAdjust="spacing" textLength="118" x="1573.5" y="261.0369">Manages weapons</text></g><!--reverse link Partie to InvadersManager--><g id="link_Partie_InvadersManager"><path codeLine="116" d="M2876.4937,218.6117 C2914.2537,245.1017 2944.83,267.22 2981.5,294.97 C3008.54,315.43 3037.16,338.19 3063.7,359.78 " fill="none" id="Partie-backto-InvadersManager" style="stroke:#181818;stroke-width:1.0;"/><polygon fill="none" points="2866.67,211.72,2869.2846,218.4404,2876.4937,218.6117,2873.8791,211.8913,2866.67,211.72" style="stroke:#181818;stroke-width:1.0;"/><text fill="#000000" font-family="sans-serif" font-size="13" lengthAdjust="spacing" textLength="116" x="2941.5" y="261.0369">Manages invaders</text></g><!--link Playership to ProjectileManager--><g id="link_Playership_ProjectileManager"><path codeLine="118" d="M796.22,331.89 C860.32,316.83 926.37,303.65 989.5,294.97 C1112.79,278.01 1989.61,246.7 2109.5,280.12 C2182.54,300.47 2250.6934,342.0968 2303.8334,380.6468 " fill="none" id="Playership-to-ProjectileManager" style="stroke:#181818;stroke-width:1.0;"/><polygon fill="#181818" points="2308.69,384.17,2303.7538,375.6474,2304.6428,381.234,2299.0562,382.1229,2308.69,384.17" style="stroke:#181818;stroke-width:1.0;"/><text fill="#000000" font-family="sans-serif" font-size="13" lengthAdjust="spacing" textLength="226" x="1882.5" y="261.0369">Fires projectiles (through firePlayer)</text></g><!--link WeaponManager to ProjectileManager--><g id="link_WeaponManager_ProjectileManager"><path codeLine="119" d="M1754.47,449.35 C1856.88,449.35 1984.89,449.35 2103.4,449.35 " fill="none" id="WeaponManager-to-ProjectileManager" style="stroke:#181818;stroke-width:1.0;"/><polygon fill="#181818" points="2109.4,449.35,2100.4,445.35,2104.4,449.35,2100.4,453.35,2109.4,449.35" style="stroke:#181818;stroke-width:1.0;"/><text fill="#000000" font-family="sans-serif" font-size="13" lengthAdjust="spacing" textLength="319" x="1772.25" y="442.4169">Defines projectile type (through getProjectileType)</text></g><!--link Partie to GameState--><g id="link_Partie_GameState"><path codeLine="120" d="M2866.71,210.89 C2872.3,213.44 2877.9,215.81 2883.5,217.97 C3082.61,294.82 3187.14,166.41 3357.5,294.97 C3386.26,316.68 3403.99,352.73 3414.65,384.43 " fill="none" id="Partie-GameState" style="stroke:#181818;stroke-width:1.0;"/><text fill="#000000" font-family="sans-serif" font-size="13" lengthAdjust="spacing" textLength="195" x="3308.5" y="261.0369">Updates based on game state</text></g><!--link Invader to ProjectileManager--><g id="link_Invader_ProjectileManager"><path codeLine="122" d="M1326.9015,371.0169 C1346.9115,340.3869 1371.18,312.85 1405.5,294.97 C1498.38,246.6 1773.11,263.5 1876.5,280.12 C2000.46,300.03 2129.4738,343.236 2229.6838,381.986 " fill="none" id="Invader-ProjectileManager" style="stroke:#181818;stroke-width:1.0;"/><polygon fill="#181818" points="1323.62,376.04,1331.891,370.693,1326.3546,371.8541,1325.1935,366.3177,1323.62,376.04" style="stroke:#181818;stroke-width:1.0;"/><polygon fill="#181818" points="2235.28,384.15,2228.3284,377.1733,2230.6165,382.3467,2225.4431,384.6348,2235.28,384.15" style="stroke:#181818;stroke-width:1.0;"/><text fill="#000000" font-family="sans-serif" font-size="13" lengthAdjust="spacing" textLength="174" x="1701.5" y="261.0369">Potential collision detection</text></g><!--link Playership to InvaderManager--><g id="link_Playership_InvaderManager"><path codeLine="123" d="M802.2,449.35 C883.06,449.35 947.47,449.35 1000.19,449.35 " fill="none" id="Playership-InvaderManager" style="stroke:#181818;stroke-width:1.0;"/><polygon fill="#181818" points="796.2,449.35,805.2,453.35,801.2,449.35,805.2,445.35,796.2,449.35" style="stroke:#181818;stroke-width:1.0;"/><polygon fill="#181818" points="1006.19,449.35,997.19,445.35,1001.19,449.35,997.19,453.35,1006.19,449.35" style="stroke:#181818;stroke-width:1.0;"/><text fill="#000000" font-family="sans-serif" font-size="13" lengthAdjust="spacing" textLength="174" x="814.25" y="442.4169">Potential collision detection</text></g><!--SRC=[hLR1Rjim3BtxAtIqi-G-64KkIxSKQ02ZQT7ZeDXChCsH34b9MWpxzqccP4k9NVImKooI8ld8HofbGvKYAwRQXhwJFmaXNuW4Ne44cPFjwl7daplDEfqwoJqj0LLRFA16mvi-IQTvnWDgLW-RrvmmhlrfZISyOkXq8cZM6Hr0EuzfDXB0g6qCg_DHKBJsehz9KdP82nCBfAfPsu5Ta5OeffdWEIdS5-da5rRfsljRa1hOeTR3UQeEYyawBCYw270FYQI8KO5sVj9HvmR9MR3Ae_EssKWhr52kqMokN7rKsgCumzOc-HlUTuBAQgkfDkvAmPKcBmREryZTdab0Q6bnf9mUR4SBANv1gLa36nJDoGLeA_Z6Mxo6npdvPB2oflm0U3VzBnvDvTP5ok7YUXNgrWK_DKtOjvpiX6W2SlKufyc5x58jG9MJVIEevqD_DxszDOykPCbOI0VLH-xbAYTALtb-DaSXxuOBo-l0peFZuqjRcL9PRHfMOINffHDE3MnWMrCrUFyccePLKALjLy4yc83Pd31DTuMMSQuF_4oDrsNlj8UDtNLOBUUUkhRwwHpGFx-tO9rAnW-8rz4b8qWXohypv7xSouW_Bb1vaWQrHfMd6Cusik-grcYm3EF6DOu8R5Y7Nm-cb6ytz3E3MaImRCuEM9-rgzWa_JenRTWP7DxEjRirGhmiyMEn0bf5H63AY-B2EMSgBXrpqj46pvQTZHGNDVIm58qAzkMLsxGtdW-MBbjahhzmmzvUyJa6E_EFw1lK0FZfI7xG8tIBfWE_CRAv-NqwSMwQPJ_ltqnryREW9mML_Mg4KA1A2S23-QPICxzEAdmhS_ze8lL64heQWita8Wx9ExuwPr7xUfkhTg3LmUFEXn9WIpQKyKSXsgWPQygh1kxFPgJYBc43hOj8Z1sAnAPEha9YiUZ_nkJEL173-40VFFuvmSmLqJMu4aQcDtjrk17irl1Al346SxSQGjFh6HcCVQ4DhY7PnN8q7xkuecn8gcifJeSwU8Qp9CvhmjSAzen7teWsEsRmUBD-CW_8u1a8dxlcARAZXjUc0HqhpDHRRPBu1NKtaKSXjA43eusTweOf-sHMeAsPxULG4-l0EVlaxNy0]--></g></svg>